<svg width="18" height="18" viewBox="0 0 18 18" fill="none" xmlns="http://www.w3.org/2000/svg">
<g clip-path="url(#clip0)">
<path d="M0.565113 17.9983C0.715113 17.9983 0.856863 17.9398 0.962614 17.8333L5.84886 12.9463C6.41961 13.4345 7.06236 13.8328 7.76361 14.1305C8.68536 14.522 9.65361 14.7208 10.6414 14.7208C11.5841 14.7208 12.5104 14.54 13.3961 14.1823C15.2194 13.4465 16.6466 12.0455 17.4154 10.2358C18.1841 8.42677 18.2029 6.42577 17.4671 4.60327C16.7314 2.78077 15.3304 1.35277 13.5214 0.584024C12.5996 0.191774 11.6321 -0.00622559 10.6436 -0.00622559C9.70086 -0.00622559 8.77461 0.175274 7.88886 0.532274C6.06561 1.26802 4.63836 2.66902 3.86961 4.47877C3.10086 6.28852 3.08211 8.28877 3.81786 10.1113C4.11936 10.8583 4.53486 11.543 5.05461 12.1498L0.166864 17.0383C-0.0521355 17.2573 -0.0521355 17.6143 0.166864 17.834C0.273365 17.9398 0.415113 17.9983 0.565113 17.9983ZM10.6436 1.11877C11.4799 1.11877 12.3004 1.28677 13.0811 1.61902C14.6141 2.27077 15.8014 3.47977 16.4246 5.02402C17.0479 6.56827 17.0321 8.26252 16.3811 9.79552C15.7294 11.3285 14.5204 12.5158 12.9761 13.139C12.2254 13.442 11.4401 13.595 10.6421 13.595C9.80586 13.595 8.98536 13.427 8.20461 13.0948C7.47411 12.7843 6.81936 12.3463 6.25911 11.7928C6.25161 11.7823 6.24336 11.7733 6.23511 11.765C6.22311 11.753 6.21186 11.7433 6.20136 11.7358C5.62911 11.1575 5.17461 10.466 4.86186 9.68977C4.23861 8.14552 4.25436 6.45127 4.90611 4.91827C5.55711 3.38527 6.76686 2.19802 8.31111 1.57477C9.06036 1.27252 9.84561 1.11877 10.6436 1.11877Z" fill="#999999"/>
</g>
<defs>
<clipPath id="clip0">
<rect width="18" height="18" fill="white" transform="matrix(-1 0 0 1 18 0)"/>
</clipPath>
</defs>
</svg>
