<svg width="28" height="28" viewBox="0 0 28 28" fill="none" xmlns="http://www.w3.org/2000/svg">
<path d="M8.16667 17.5H16.3333V19.8334H8.16667V17.5ZM8.16667 12.8334H19.8333V15.1667H8.16667V12.8334ZM8.16667 8.16669H19.8333V10.5H8.16667V8.16669ZM22.1667 3.50002H17.29C16.8 2.14669 15.5167 1.16669 14 1.16669C12.4833 1.16669 11.2 2.14669 10.71 3.50002H5.83333C5.67 3.50002 5.51833 3.51169 5.36667 3.54669C4.9951 3.62465 4.64805 3.79174 4.35539 4.03359C4.06273 4.27544 3.83324 4.5848 3.68667 4.93502C3.57 5.20335 3.5 5.50669 3.5 5.83335V22.1667C3.5 22.4817 3.57 22.7967 3.68667 23.0767C3.80333 23.3567 3.97833 23.6017 4.18833 23.8234C4.50333 24.1384 4.91167 24.3717 5.36667 24.465C5.51833 24.4884 5.67 24.5 5.83333 24.5H22.1667C23.45 24.5 24.5 23.45 24.5 22.1667V5.83335C24.5 4.55002 23.45 3.50002 22.1667 3.50002ZM14 3.20835C14.4783 3.20835 14.875 3.60502 14.875 4.08335C14.875 4.56169 14.4783 4.95835 14 4.95835C13.5217 4.95835 13.125 4.56169 13.125 4.08335C13.125 3.60502 13.5217 3.20835 14 3.20835ZM22.1667 22.1667H5.83333V5.83335H22.1667V22.1667Z" fill="#999999"/>
</svg>
